<svg width="61" height="49" viewBox="0 0 61 49" fill="none" xmlns="http://www.w3.org/2000/svg">
<path d="M29.0495 22.8798C29.0495 22.8583 28.9009 22.6021 28.1329 21.4372C27.5136 20.5174 26.4282 18.9305 25.6793 17.7233C24.9305 16.5162 24.551 15.7369 24.0768 14.6494" stroke="#D1C650" stroke-width="2" stroke-linecap="round"/>
<path d="M34.1408 18.7839C34.1464 18.7896 34.1521 18.7952 34.1629 18.6356C34.1737 18.476 34.1895 18.151 34.9025 15.2089C35.6154 12.2669 37.0249 6.71763 38.4771 1.00024" stroke="#7F2EAE" stroke-width="2" stroke-linecap="round"/>
<path d="M42.2013 17.7389C42.2013 17.7447 42.2013 17.7505 42.3092 17.7408C42.4171 17.731 42.6329 17.7056 44.2236 16.9969C45.8143 16.2882 48.7733 14.8971 51.8219 13.4638" stroke="#ED9356" stroke-width="2" stroke-linecap="round"/>
<path d="M42.5837 28.1075C42.7095 28.2403 43.0075 28.3841 43.991 28.6142C44.7413 28.769 46.0017 29.001 47.1004 29.1315C48.199 29.2621 49.0979 29.2842 50.0239 29.307" stroke="#3C7FD1" stroke-width="2" stroke-linecap="round"/>
<path d="M38.7231 36.1611C39.147 36.731 39.5708 37.3009 40.238 38.0383C40.9052 38.7757 41.8028 39.6634 42.7276 40.578" stroke="#7F2EAE" stroke-width="2" stroke-linecap="round"/>
<path d="M20.6443 31.0445C20.6163 31.0445 20.5883 31.0445 18.6764 30.8765C16.7646 30.7085 12.9697 30.3726 9.05988 30.0265" stroke="#CB2D2D" stroke-width="2" stroke-linecap="round"/>
<path d="M20.3518 23.6312C20.3574 23.6253 20.3631 23.6195 19.7174 23.1664C19.0718 22.7132 17.7748 21.8129 14.6937 19.2278C11.6126 16.6426 6.78681 12.3999 4.17976 10.1428C1.57271 7.88573 1.33066 7.74287 1.00021 7.57858" stroke="#ED9356" stroke-width="2" stroke-linecap="round"/>
<path d="M26.8789 37.5018C26.8672 37.5018 25.8603 38.7064 24.2734 40.6406C23.6876 41.3701 23.5471 41.5881 23.4259 41.7935C23.3048 41.9988 23.2072 42.1848 23.1067 42.3764" stroke="#ED9356" stroke-width="2" stroke-linecap="round"/>
<path d="M33.5739 35.8639C33.5739 35.8967 33.5739 36.1962 33.585 36.7091C33.5961 36.9394 33.6183 37.1089 33.8568 37.8659C34.0954 38.6229 34.5497 39.9623 35.0177 41.3424" stroke="#3C7FD1" stroke-width="2" stroke-linecap="round"/>
<path d="M45.0326 36.4055C45.0559 36.4346 45.0792 36.4637 47.1624 37.9418C49.2457 39.4199 53.3881 42.3461 55.7493 44.0582C58.1105 45.7703 58.5649 46.1796 58.8721 46.4916C59.1793 46.8035 59.3254 47.0057 59.5041 47.3039" stroke="#CB2D2D" stroke-width="2" stroke-linecap="round"/>
</svg>
