<svg width="148" height="13" viewBox="0 0 148 13" fill="none" xmlns="http://www.w3.org/2000/svg">
<path d="M1.00016 8.65335C1.24791 8.50788 2.58825 7.68144 7.69751 4.81488C9.13938 4.00592 10.0009 3.75882 10.9505 3.63707C11.9136 3.51359 12.6916 3.74251 13.1909 4.10593C14.4736 5.03963 14.9878 9.21678 15.7904 11.305C15.8684 11.5079 16.4126 11.4076 18.4063 9.88581C20.4 8.36401 23.9978 5.32014 25.9971 3.66572C28.2434 1.80693 28.8359 1.55197 29.3468 1.35758C29.6033 1.25997 29.8837 1.21231 30.1825 1.28202C33.5487 2.06745 33.8361 8.35169 35.0038 9.55319C35.4609 10.0235 36.5926 10.066 37.8126 10.0201C38.9835 9.976 42.395 7.58901 47.0884 4.54418C49.2438 3.14586 50.1854 3.02342 50.8481 2.94366C51.6618 2.84573 52.4935 2.97408 53.1564 3.18906C54.3369 3.57188 54.8708 4.91286 55.2671 6.04097C55.4876 6.66868 55.862 7.19093 56.3247 7.60766C56.9469 8.16805 57.876 8.37858 58.8263 8.44972C60.2528 8.55649 61.7719 8.25662 64.4245 7.22836C69.9186 5.09867 73.7041 3.01253 74.6411 2.54313C77.2714 1.22548 79.2484 8.70629 80.1417 9.1819C80.3686 9.30267 80.7015 9.25608 81.215 9.01612C85.6439 6.94657 87.6592 2.30735 88.1938 2.24139C91.2326 1.86646 92.1317 8.09867 93.3673 9.48013C94.2911 10.513 96.133 10.4709 97.3619 10.3894C102.085 10.0761 105.657 4.03529 106.867 3.48133C107.521 3.18177 108.892 3.22847 110.458 3.32796C112.345 3.44786 113.307 4.71314 114.282 5.57618C117.112 8.08244 123.475 2.15326 125.532 1.1585C128.093 -0.0797523 130.534 6.3862 131.671 7.24902C132.67 8.00823 135.187 7.87836 137.109 7.43363C139.188 6.95265 140.065 5.02991 140.57 4.59657C140.807 4.39345 141.157 4.34342 141.458 4.42831C142.041 4.76495 142.648 5.13671 143.71 5.42099C144.455 5.59288 145.618 5.82086 146.877 6.05575" stroke="#CB2D2D" stroke-width="2" stroke-linecap="round"/>
</svg>
